<svg xmlns="http://www.w3.org/2000/svg" xmlns:xlink="http://www.w3.org/1999/xlink" width="1080" zoomAndPan="magnify" viewBox="0 0 810 809.999993" height="1080" preserveAspectRatio="xMidYMid meet" version="1.0"><defs><clipPath id="915f9c209b"><path d="M 750 291.441406 L 761 291.441406 L 761 302 L 750 302 Z M 750 291.441406 " clip-rule="nonzero"/></clipPath><clipPath id="9f9e2109e7"><path d="M 510 508 L 521 508 L 521 518.691406 L 510 518.691406 Z M 510 508 " clip-rule="nonzero"/></clipPath><clipPath id="e138e7488f"><path d="M 106 377.75 L 133 377.75 L 133 404 L 106 404 Z M 106 377.75 " clip-rule="nonzero"/></clipPath><clipPath id="bdabf53ad2"><path d="M 72.894531 393.804688 L 165.671875 393.804688 L 165.671875 449.492188 L 72.894531 449.492188 Z M 72.894531 393.804688 " clip-rule="nonzero"/></clipPath></defs><path fill="#1cbdff" d="M 122.898438 486.390625 C 82.324219 486.390625 49.308594 453.375 49.308594 412.800781 C 49.308594 372.226562 82.324219 339.210938 122.898438 339.210938 C 163.472656 339.210938 196.488281 372.226562 196.488281 412.800781 C 196.488281 453.375 163.472656 486.390625 122.898438 486.390625 Z M 122.898438 347.121094 C 86.683594 347.121094 57.21875 376.585938 57.21875 412.800781 C 57.21875 449.019531 86.683594 478.484375 122.898438 478.484375 C 159.117188 478.484375 188.582031 449.019531 188.582031 412.800781 C 188.582031 376.585938 159.117188 347.121094 122.898438 347.121094 Z M 122.898438 347.121094 " fill-opacity="1" fill-rule="nonzero"/><path fill="#1cbdff" d="M 187.324219 377.242188 L 376.113281 377.242188 L 376.113281 381.984375 L 187.324219 381.984375 Z M 187.324219 377.242188 " fill-opacity="1" fill-rule="nonzero"/><path fill="#1cbdff" d="M 375.628906 389.425781 C 381.046875 389.425781 385.441406 385.03125 385.441406 379.613281 C 385.441406 374.195312 381.046875 369.800781 375.628906 369.800781 C 370.210938 369.800781 365.816406 374.195312 365.816406 379.613281 C 365.816406 385.03125 370.210938 389.425781 375.628906 389.425781 Z M 375.628906 389.425781 " fill-opacity="1" fill-rule="nonzero"/><path fill="#1cbdff" d="M 190.835938 425.398438 L 379.023438 425.398438 L 379.023438 430.144531 L 190.835938 430.144531 Z M 190.835938 425.398438 " fill-opacity="1" fill-rule="nonzero"/><path fill="#1cbdff" d="M 378.523438 437.585938 C 383.941406 437.585938 388.335938 433.1875 388.335938 427.769531 C 388.335938 422.355469 383.941406 417.957031 378.523438 417.957031 C 373.105469 417.957031 368.710938 422.355469 368.710938 427.769531 C 368.710938 433.1875 373.105469 437.585938 378.523438 437.585938 Z M 378.523438 437.585938 " fill-opacity="1" fill-rule="nonzero"/><path fill="#1cbdff" d="M 191.117188 407.179688 L 392.257812 407.179688 L 392.257812 411.925781 L 191.117188 411.925781 Z M 191.117188 407.179688 " fill-opacity="1" fill-rule="nonzero"/><path fill="#1cbdff" d="M 391.769531 419.355469 C 397.1875 419.355469 401.582031 414.960938 401.582031 409.542969 C 401.582031 404.125 397.1875 399.730469 391.769531 399.730469 C 386.351562 399.730469 381.957031 404.125 381.957031 409.542969 C 381.957031 414.960938 386.351562 419.355469 391.769531 419.355469 Z M 391.769531 419.355469 " fill-opacity="1" fill-rule="nonzero"/><path fill="#1cbdff" d="M 172.605469 457.9375 L 417.214844 457.9375 L 417.214844 462.683594 L 172.605469 462.683594 Z M 172.605469 457.9375 " fill-opacity="1" fill-rule="nonzero"/><path fill="#1cbdff" d="M 416.726562 470.125 C 422.144531 470.125 426.539062 465.726562 426.539062 460.3125 C 426.539062 454.894531 422.144531 450.496094 416.726562 450.496094 C 411.308594 450.496094 406.914062 454.894531 406.914062 460.3125 C 406.914062 465.726562 411.308594 470.125 416.726562 470.125 Z M 416.726562 470.125 " fill-opacity="1" fill-rule="nonzero"/><path fill="#1cbdff" d="M 166.503906 360.316406 L 577.609375 360.316406 L 577.609375 365.0625 L 166.503906 365.0625 Z M 166.503906 360.316406 " fill-opacity="1" fill-rule="nonzero"/><path fill="#1cbdff" d="M 577.117188 372.503906 C 582.535156 372.503906 586.929688 368.105469 586.929688 362.691406 C 586.929688 357.273438 582.535156 352.878906 577.117188 352.878906 C 571.699219 352.878906 567.304688 357.273438 567.304688 362.691406 C 567.304688 368.105469 571.699219 372.503906 577.117188 372.503906 Z M 577.117188 372.503906 " fill-opacity="1" fill-rule="nonzero"/><path fill="#1cbdff" d="M 581.257812 363.496094 L 645.40625 299.351562 L 648.199219 302.148438 L 584.054688 366.292969 Z M 581.257812 363.496094 " fill-opacity="1" fill-rule="nonzero"/><path fill="#1cbdff" d="M 652.296875 306.824219 C 655.492188 303.628906 655.492188 298.457031 652.296875 295.261719 C 649.101562 292.066406 643.929688 292.066406 640.734375 295.261719 C 637.539062 298.457031 637.539062 303.628906 640.734375 306.824219 C 643.929688 310.015625 649.101562 310.015625 652.296875 306.824219 Z M 652.296875 306.824219 " fill-opacity="1" fill-rule="nonzero"/><path fill="#1cbdff" d="M 648.984375 295.183594 L 756.054688 295.183594 L 756.054688 297.554688 L 648.984375 297.554688 Z M 648.984375 295.183594 " fill-opacity="1" fill-rule="nonzero"/><g clip-path="url(#915f9c209b)"><path fill="#1cbdff" d="M 755.808594 301.269531 C 758.519531 301.269531 760.710938 299.074219 760.710938 296.367188 C 760.710938 293.664062 758.511719 291.464844 755.808594 291.464844 C 753.105469 291.464844 750.90625 293.664062 750.90625 296.367188 C 750.90625 299.074219 753.105469 301.269531 755.808594 301.269531 Z M 755.808594 301.269531 " fill-opacity="1" fill-rule="nonzero"/></g><path fill="#1cbdff" d="M 627.765625 318.550781 L 733.738281 318.550781 L 733.738281 320.921875 L 627.765625 320.921875 Z M 627.765625 318.550781 " fill-opacity="1" fill-rule="nonzero"/><path fill="#1cbdff" d="M 733.492188 324.648438 C 736.207031 324.648438 738.394531 322.449219 738.394531 319.742188 C 738.394531 317.039062 736.195312 314.839844 733.492188 314.839844 C 730.789062 314.839844 728.589844 317.039062 728.589844 319.742188 C 728.589844 322.449219 730.789062 324.648438 733.492188 324.648438 Z M 733.492188 324.648438 " fill-opacity="1" fill-rule="nonzero"/><path fill="#1cbdff" d="M 609.539062 340.683594 L 749.378906 340.683594 L 749.378906 343.054688 L 609.539062 343.054688 Z M 609.539062 340.683594 " fill-opacity="1" fill-rule="nonzero"/><path fill="#1cbdff" d="M 749.132812 346.773438 C 751.847656 346.773438 754.035156 344.574219 754.035156 341.871094 C 754.035156 339.164062 751.839844 336.964844 749.132812 336.964844 C 746.429688 336.964844 744.230469 339.164062 744.230469 341.871094 C 744.230469 344.574219 746.429688 346.773438 749.132812 346.773438 Z M 749.132812 346.773438 " fill-opacity="1" fill-rule="nonzero"/><path fill="#1cbdff" d="M 421.960938 460.265625 L 490.582031 391.644531 L 493.375 394.441406 L 424.757812 463.0625 Z M 421.960938 460.265625 " fill-opacity="1" fill-rule="nonzero"/><path fill="#1cbdff" d="M 497.480469 399.113281 C 500.675781 395.917969 500.675781 390.746094 497.480469 387.550781 C 494.285156 384.359375 489.113281 384.359375 485.917969 387.550781 C 482.722656 390.746094 482.722656 395.917969 485.917969 399.113281 C 489.113281 402.308594 494.285156 402.308594 497.480469 399.113281 Z M 497.480469 399.113281 " fill-opacity="1" fill-rule="nonzero"/><path fill="#1cbdff" d="M 384.269531 428.765625 L 387.066406 425.96875 L 467.828125 506.734375 L 465.035156 509.53125 Z M 384.269531 428.765625 " fill-opacity="1" fill-rule="nonzero"/><path fill="#1cbdff" d="M 460.367188 513.632812 C 463.5625 516.828125 468.734375 516.828125 471.929688 513.632812 C 475.125 510.4375 475.125 505.265625 471.929688 502.070312 C 468.734375 498.878906 463.5625 498.878906 460.367188 502.070312 C 457.171875 505.265625 457.171875 510.4375 460.367188 513.632812 Z M 460.367188 513.632812 " fill-opacity="1" fill-rule="nonzero"/><path fill="#1cbdff" d="M 381.667969 379.511719 L 449.800781 311.378906 L 452.597656 314.175781 L 384.464844 382.308594 Z M 381.667969 379.511719 " fill-opacity="1" fill-rule="nonzero"/><path fill="#1cbdff" d="M 456.699219 318.851562 C 459.894531 315.65625 459.894531 310.484375 456.699219 307.289062 C 453.503906 304.09375 448.332031 304.09375 445.136719 307.289062 C 441.945312 310.484375 441.945312 315.65625 445.136719 318.851562 C 448.332031 322.042969 453.503906 322.042969 456.699219 318.851562 Z M 456.699219 318.851562 " fill-opacity="1" fill-rule="nonzero"/><path fill="#1cbdff" d="M 397.179688 409.058594 L 473.730469 332.511719 L 476.523438 335.308594 L 399.976562 411.855469 Z M 397.179688 409.058594 " fill-opacity="1" fill-rule="nonzero"/><path fill="#1cbdff" d="M 480.621094 339.972656 C 483.816406 336.777344 483.816406 331.605469 480.621094 328.410156 C 477.425781 325.214844 472.253906 325.214844 469.058594 328.410156 C 465.863281 331.605469 465.863281 336.777344 469.058594 339.972656 C 472.253906 343.167969 477.425781 343.167969 480.621094 339.972656 Z M 480.621094 339.972656 " fill-opacity="1" fill-rule="nonzero"/><path fill="#1cbdff" d="M 496.308594 390.136719 L 598.769531 390.136719 L 598.769531 392.511719 L 496.308594 392.511719 Z M 496.308594 390.136719 " fill-opacity="1" fill-rule="nonzero"/><path fill="#1cbdff" d="M 598.515625 396.234375 C 601.226562 396.234375 603.417969 394.035156 603.417969 391.332031 C 603.417969 388.628906 601.21875 386.429688 598.515625 386.429688 C 595.8125 386.429688 593.613281 388.628906 593.613281 391.332031 C 593.613281 394.035156 595.8125 396.234375 598.515625 396.234375 Z M 598.515625 396.234375 " fill-opacity="1" fill-rule="nonzero"/><path fill="#1cbdff" d="M 474.175781 408.367188 L 524.738281 408.367188 L 524.738281 410.738281 L 474.175781 410.738281 Z M 474.175781 408.367188 " fill-opacity="1" fill-rule="nonzero"/><path fill="#1cbdff" d="M 524.492188 414.453125 C 527.203125 414.453125 529.394531 412.257812 529.394531 409.550781 C 529.394531 406.847656 527.195312 404.648438 524.492188 404.648438 C 521.789062 404.648438 519.589844 406.847656 519.589844 409.550781 C 519.589844 412.257812 521.789062 414.453125 524.492188 414.453125 Z M 524.492188 414.453125 " fill-opacity="1" fill-rule="nonzero"/><path fill="#1cbdff" d="M 454.652344 429.1875 L 535.230469 429.1875 L 535.230469 431.558594 L 454.652344 431.558594 Z M 454.652344 429.1875 " fill-opacity="1" fill-rule="nonzero"/><path fill="#1cbdff" d="M 534.984375 435.273438 C 537.699219 435.273438 539.886719 433.078125 539.886719 430.371094 C 539.886719 427.667969 537.691406 425.46875 534.984375 425.46875 C 532.28125 425.46875 530.082031 427.667969 530.082031 430.371094 C 530.082031 433.078125 532.28125 435.273438 534.984375 435.273438 Z M 534.984375 435.273438 " fill-opacity="1" fill-rule="nonzero"/><path fill="#1cbdff" d="M 452.050781 309.441406 L 527.648438 309.441406 L 527.648438 311.8125 L 452.050781 311.8125 Z M 452.050781 309.441406 " fill-opacity="1" fill-rule="nonzero"/><path fill="#1cbdff" d="M 527.402344 315.535156 C 530.113281 315.535156 532.304688 313.339844 532.304688 310.632812 C 532.304688 307.929688 530.105469 305.730469 527.402344 305.730469 C 524.699219 305.730469 522.5 307.929688 522.5 310.632812 C 522.5 313.339844 524.699219 315.535156 527.402344 315.535156 Z M 527.402344 315.535156 " fill-opacity="1" fill-rule="nonzero"/><path fill="#1cbdff" d="M 477.921875 330.378906 L 556.652344 330.378906 L 556.652344 332.75 L 477.921875 332.75 Z M 477.921875 330.378906 " fill-opacity="1" fill-rule="nonzero"/><path fill="#1cbdff" d="M 556.40625 336.46875 C 559.121094 336.46875 561.308594 334.269531 561.308594 331.566406 C 561.308594 328.863281 559.113281 326.664062 556.40625 326.664062 C 553.703125 326.664062 551.503906 328.863281 551.503906 331.566406 C 551.503906 334.269531 553.703125 336.46875 556.40625 336.46875 Z M 556.40625 336.46875 " fill-opacity="1" fill-rule="nonzero"/><path fill="#1cbdff" d="M 468.972656 512.484375 L 565.296875 512.484375 L 565.296875 514.859375 L 468.972656 514.859375 Z M 468.972656 512.484375 " fill-opacity="1" fill-rule="nonzero"/><g clip-path="url(#9f9e2109e7)"><path fill="#1cbdff" d="M 515.636719 518.582031 C 518.347656 518.582031 520.539062 516.382812 520.539062 513.679688 C 520.539062 510.976562 518.339844 508.777344 515.636719 508.777344 C 512.929688 508.777344 510.734375 510.976562 510.734375 513.679688 C 510.734375 516.382812 512.929688 518.582031 515.636719 518.582031 Z M 515.636719 518.582031 " fill-opacity="1" fill-rule="nonzero"/></g><path fill="#1cbdff" d="M 461.847656 500.773438 L 532.691406 500.773438 L 532.691406 503.148438 L 461.847656 503.148438 Z M 461.847656 500.773438 " fill-opacity="1" fill-rule="nonzero"/><path fill="#1cbdff" d="M 532.445312 506.863281 C 535.160156 506.863281 537.351562 504.664062 537.351562 501.960938 C 537.351562 499.257812 535.152344 497.058594 532.445312 497.058594 C 529.742188 497.058594 527.542969 499.257812 527.542969 501.960938 C 527.542969 504.664062 529.742188 506.863281 532.445312 506.863281 Z M 532.445312 506.863281 " fill-opacity="1" fill-rule="nonzero"/><g clip-path="url(#e138e7488f)"><path fill="#881eff" d="M 132.535156 390.363281 C 132.535156 383.40625 126.878906 377.75 119.921875 377.75 C 113.910156 377.75 109.128906 380.742188 107.09375 385.34375 L 113.355469 385.34375 C 113.800781 385.34375 114.160156 385.703125 114.160156 386.148438 C 114.160156 386.589844 113.800781 386.953125 113.355469 386.953125 L 106.515625 386.953125 C 106.199219 388.070312 106.03125 389.257812 106.03125 390.507812 L 106.03125 391.28125 L 113.03125 391.28125 C 113.476562 391.28125 113.835938 391.640625 113.835938 392.085938 C 113.835938 392.53125 113.476562 392.890625 113.03125 392.890625 L 106.03125 392.890625 L 106.03125 396.535156 L 113.03125 396.535156 C 113.476562 396.535156 113.835938 396.898438 113.835938 397.339844 C 113.835938 397.785156 113.476562 398.144531 113.03125 398.144531 L 106.03125 398.144531 L 106.03125 403.898438 L 132.535156 403.898438 L 132.535156 390.363281 " fill-opacity="1" fill-rule="nonzero"/></g><path fill="#881eff" d="M 132.535156 405.503906 L 106.03125 405.503906 L 106.03125 407.492188 L 132.535156 407.492188 L 132.535156 405.503906 " fill-opacity="1" fill-rule="nonzero"/><path fill="#881eff" d="M 120.957031 424.949219 C 125.695312 424.949219 129.550781 421.09375 129.550781 416.355469 L 129.550781 411.777344 C 129.550781 411.332031 129.910156 410.972656 130.355469 410.972656 C 130.800781 410.972656 131.160156 411.332031 131.160156 411.777344 L 131.160156 416.355469 C 131.160156 421.980469 126.582031 426.558594 120.957031 426.558594 C 120.511719 426.558594 120.152344 426.199219 120.152344 425.753906 C 120.152344 425.308594 120.511719 424.949219 120.957031 424.949219 Z M 117.609375 427.933594 L 120.957031 427.933594 C 127.339844 427.933594 132.535156 422.742188 132.535156 416.355469 L 132.535156 409.101562 L 106.03125 409.101562 L 106.03125 416.355469 C 106.03125 422.742188 111.222656 427.933594 117.609375 427.933594 " fill-opacity="1" fill-rule="nonzero"/><g clip-path="url(#bdabf53ad2)"><path fill="#881eff" d="M 164.867188 404.796875 L 160.542969 404.796875 C 160.15625 404.796875 159.828125 405.070312 159.753906 405.445312 L 158.203125 413.253906 L 155.160156 394.714844 C 155.058594 394.09375 154.609375 393.8125 154.210938 393.808594 C 154.207031 393.808594 154.203125 393.808594 154.203125 393.808594 C 153.808594 393.808594 153.359375 394.078125 153.25 394.6875 L 150.308594 410.59375 L 148.257812 401.402344 C 148.152344 400.902344 147.789062 400.570312 147.335938 400.558594 C 146.972656 400.542969 146.527344 400.78125 146.394531 401.285156 L 144.25 407.710938 C 144.246094 407.726562 144.242188 407.742188 144.234375 407.757812 L 137.296875 407.722656 C 137.292969 407.722656 137.292969 407.722656 137.292969 407.722656 C 137.238281 407.722656 137.183594 407.730469 137.128906 407.738281 C 137.105469 407.746094 137.082031 407.753906 137.058594 407.761719 C 137.03125 407.769531 137.003906 407.777344 136.980469 407.785156 C 136.957031 407.796875 136.9375 407.808594 136.914062 407.820312 C 136.890625 407.835938 136.867188 407.84375 136.84375 407.859375 C 136.820312 407.875 136.804688 407.890625 136.785156 407.910156 C 136.765625 407.925781 136.742188 407.941406 136.722656 407.957031 C 136.707031 407.976562 136.691406 408 136.671875 408.019531 C 136.65625 408.039062 136.640625 408.054688 136.625 408.078125 C 136.609375 408.097656 136.601562 408.121094 136.589844 408.144531 C 136.574219 408.167969 136.5625 408.191406 136.550781 408.214844 C 136.542969 408.238281 136.535156 408.265625 136.527344 408.289062 C 136.519531 408.3125 136.511719 408.339844 136.503906 408.363281 C 136.5 408.390625 136.5 408.417969 136.496094 408.441406 C 136.492188 408.46875 136.488281 408.496094 136.488281 408.523438 L 136.488281 416.585938 C 136.488281 424.941406 129.691406 431.738281 121.339844 431.738281 L 117.226562 431.738281 C 108.875 431.738281 102.078125 424.941406 102.078125 416.585938 L 102.078125 408.523438 C 102.078125 408.496094 102.074219 408.46875 102.070312 408.441406 C 102.066406 408.417969 102.066406 408.390625 102.0625 408.363281 C 102.054688 408.339844 102.046875 408.3125 102.039062 408.289062 C 102.03125 408.265625 102.023438 408.238281 102.015625 408.214844 C 102.003906 408.191406 101.992188 408.167969 101.976562 408.144531 C 101.964844 408.121094 101.957031 408.097656 101.941406 408.078125 C 101.925781 408.054688 101.910156 408.039062 101.890625 408.019531 C 101.875 408 101.859375 407.976562 101.84375 407.957031 C 101.824219 407.941406 101.800781 407.925781 101.78125 407.910156 C 101.761719 407.890625 101.746094 407.875 101.722656 407.859375 C 101.699219 407.84375 101.675781 407.835938 101.652344 407.820312 C 101.628906 407.808594 101.609375 407.796875 101.585938 407.785156 C 101.5625 407.777344 101.535156 407.769531 101.507812 407.761719 C 101.484375 407.753906 101.460938 407.746094 101.4375 407.738281 C 101.382812 407.730469 101.328125 407.722656 101.273438 407.722656 C 101.273438 407.722656 101.273438 407.722656 101.269531 407.722656 L 94.332031 407.757812 C 94.320312 407.730469 94.3125 407.699219 94.300781 407.664062 L 92.1875 401.328125 C 92.039062 400.78125 91.589844 400.546875 91.230469 400.558594 C 90.777344 400.570312 90.414062 400.902344 90.3125 401.394531 L 88.253906 410.597656 L 85.316406 394.6875 C 85.207031 394.074219 84.75 393.832031 84.355469 393.808594 C 83.957031 393.8125 83.507812 394.09375 83.40625 394.714844 L 80.363281 413.25 L 78.8125 405.445312 C 78.738281 405.070312 78.40625 404.796875 78.023438 404.796875 L 73.699219 404.796875 C 73.253906 404.796875 72.894531 405.15625 72.894531 405.601562 C 72.894531 406.046875 73.253906 406.40625 73.699219 406.40625 L 77.363281 406.40625 L 79.34375 416.378906 C 79.496094 417.128906 80.011719 417.394531 80.414062 417.394531 C 80.417969 417.394531 80.425781 417.394531 80.429688 417.394531 C 80.839844 417.386719 81.363281 417.101562 81.492188 416.320312 L 84.402344 398.585938 L 87.132812 413.386719 C 87.273438 414.144531 87.792969 414.421875 88.195312 414.425781 C 88.589844 414.425781 89.113281 414.171875 89.269531 413.4375 L 91.378906 403.992188 L 92.761719 408.128906 C 92.96875 408.894531 93.476562 409.367188 94.09375 409.367188 L 100.46875 409.335938 L 100.46875 416.585938 C 100.46875 425.339844 107.214844 432.542969 115.78125 433.277344 L 115.78125 447.882812 L 106.289062 447.882812 C 105.84375 447.882812 105.484375 448.242188 105.484375 448.6875 C 105.484375 449.128906 105.84375 449.492188 106.289062 449.492188 L 133.339844 449.492188 C 133.785156 449.492188 134.144531 449.128906 134.144531 448.6875 C 134.144531 448.242188 133.785156 447.882812 133.339844 447.882812 L 122.785156 447.882812 L 122.785156 433.277344 C 131.351562 432.542969 138.097656 425.339844 138.097656 416.585938 L 138.097656 409.335938 L 144.476562 409.367188 C 145.089844 409.367188 145.597656 408.894531 145.789062 408.171875 L 147.1875 403.988281 L 149.292969 413.425781 C 149.449219 414.164062 149.960938 414.425781 150.359375 414.425781 C 150.363281 414.425781 150.367188 414.425781 150.371094 414.425781 C 150.773438 414.421875 151.289062 414.144531 151.433594 413.386719 L 154.164062 398.585938 L 157.074219 416.320312 C 157.203125 417.101562 157.726562 417.386719 158.136719 417.394531 C 158.144531 417.394531 158.148438 417.394531 158.152344 417.394531 C 158.554688 417.394531 159.070312 417.128906 159.222656 416.378906 L 161.203125 406.40625 L 164.867188 406.40625 C 165.3125 406.40625 165.671875 406.046875 165.671875 405.601562 C 165.671875 405.15625 165.3125 404.796875 164.867188 404.796875 " fill-opacity="1" fill-rule="nonzero"/></g></svg>